<mxfile host="app.diagrams.net" modified="2021-07-02T21:54:12.305Z" agent="5.0 (Windows)" etag="OuKfWB0MJw8Fa4qtzNMg" version="14.8.4" type="github">
  <diagram id="R2lEEEUBdFMjLlhIrx00" name="Page-1">
    <mxGraphModel dx="-244" dy="1476" grid="1" gridSize="10" guides="1" tooltips="1" connect="1" arrows="1" fold="1" page="1" pageScale="1" pageWidth="850" pageHeight="1100" math="0" shadow="0" extFonts="Permanent Marker^https://fonts.googleapis.com/css?family=Permanent+Marker">
      <root>
        <mxCell id="0" />
        <mxCell id="1" parent="0" />
        <mxCell id="O9fD_qPUTXPjsHk1Z0R7-1" value="Passenger_transactions" style="shape=table;startSize=30;container=1;collapsible=1;childLayout=tableLayout;fixedRows=1;rowLines=0;fontStyle=1;align=center;resizeLast=1;swimlaneFillColor=none;sketch=1;fillColor=#fff2cc;strokeWidth=1;strokeColor=#009900;" vertex="1" parent="1">
          <mxGeometry x="1040" y="-870" width="200" height="180" as="geometry" />
        </mxCell>
        <mxCell id="O9fD_qPUTXPjsHk1Z0R7-2" value="" style="shape=partialRectangle;collapsible=0;dropTarget=0;pointerEvents=0;points=[[0,0.5],[1,0.5]];portConstraint=eastwest;top=0;left=0;right=0;bottom=1;sketch=1;fillColor=#fff2cc;fontStyle=1;startSize=30;strokeWidth=1;strokeColor=#009900;" vertex="1" parent="O9fD_qPUTXPjsHk1Z0R7-1">
          <mxGeometry y="30" width="200" height="30" as="geometry" />
        </mxCell>
        <mxCell id="O9fD_qPUTXPjsHk1Z0R7-3" value="PK" style="shape=partialRectangle;overflow=hidden;connectable=0;top=0;left=0;bottom=0;right=0;fontStyle=1;sketch=1;fillColor=#fff2cc;startSize=30;strokeWidth=1;strokeColor=#009900;" vertex="1" parent="O9fD_qPUTXPjsHk1Z0R7-2">
          <mxGeometry width="30" height="30" as="geometry" />
        </mxCell>
        <mxCell id="O9fD_qPUTXPjsHk1Z0R7-4" value="Passanger_trannsactions" style="shape=partialRectangle;overflow=hidden;connectable=0;top=0;left=0;bottom=0;right=0;align=center;fontStyle=1;sketch=1;fillColor=#fff2cc;startSize=30;strokeWidth=1;strokeColor=#009900;" vertex="1" parent="O9fD_qPUTXPjsHk1Z0R7-2">
          <mxGeometry x="30" width="170" height="30" as="geometry" />
        </mxCell>
        <mxCell id="O9fD_qPUTXPjsHk1Z0R7-5" value="" style="shape=partialRectangle;collapsible=0;dropTarget=0;pointerEvents=0;points=[[0,0.5],[1,0.5]];portConstraint=eastwest;top=0;left=0;right=0;bottom=0;sketch=1;fillColor=#fff2cc;fontStyle=1;startSize=30;strokeWidth=1;strokeColor=#009900;" vertex="1" parent="O9fD_qPUTXPjsHk1Z0R7-1">
          <mxGeometry y="60" width="200" height="40" as="geometry" />
        </mxCell>
        <mxCell id="O9fD_qPUTXPjsHk1Z0R7-6" value="FK1" style="shape=partialRectangle;overflow=hidden;connectable=0;top=0;left=0;bottom=0;right=0;sketch=1;fillColor=#fff2cc;fontStyle=1;startSize=30;strokeWidth=1;strokeColor=#009900;" vertex="1" parent="O9fD_qPUTXPjsHk1Z0R7-5">
          <mxGeometry width="30" height="40" as="geometry" />
        </mxCell>
        <mxCell id="O9fD_qPUTXPjsHk1Z0R7-7" value="School_id " style="shape=partialRectangle;overflow=hidden;connectable=0;top=0;left=0;bottom=0;right=0;align=center;sketch=1;fillColor=#fff2cc;fontStyle=1;startSize=30;strokeWidth=1;strokeColor=#009900;" vertex="1" parent="O9fD_qPUTXPjsHk1Z0R7-5">
          <mxGeometry x="30" width="170" height="40" as="geometry" />
        </mxCell>
        <mxCell id="O9fD_qPUTXPjsHk1Z0R7-8" value="" style="shape=partialRectangle;collapsible=0;dropTarget=0;pointerEvents=0;points=[[0,0.5],[1,0.5]];portConstraint=eastwest;top=0;left=0;right=0;bottom=0;sketch=1;fillColor=#fff2cc;fontStyle=1;startSize=30;strokeWidth=1;strokeColor=#009900;" vertex="1" parent="O9fD_qPUTXPjsHk1Z0R7-1">
          <mxGeometry y="100" width="200" height="80" as="geometry" />
        </mxCell>
        <mxCell id="O9fD_qPUTXPjsHk1Z0R7-9" value="" style="shape=partialRectangle;overflow=hidden;connectable=0;top=0;left=0;bottom=0;right=0;sketch=1;fillColor=#fff2cc;fontStyle=1;startSize=30;strokeWidth=1;strokeColor=#009900;" vertex="1" parent="O9fD_qPUTXPjsHk1Z0R7-8">
          <mxGeometry width="30" height="80" as="geometry" />
        </mxCell>
        <mxCell id="O9fD_qPUTXPjsHk1Z0R7-10" value="current INT(4)" style="shape=partialRectangle;overflow=hidden;connectable=0;top=0;left=0;bottom=0;right=0;align=center;sketch=1;fillColor=#fff2cc;fontStyle=1;startSize=30;strokeWidth=1;strokeColor=#009900;" vertex="1" parent="O9fD_qPUTXPjsHk1Z0R7-8">
          <mxGeometry x="30" width="170" height="80" as="geometry" />
        </mxCell>
        <mxCell id="O9fD_qPUTXPjsHk1Z0R7-11" value="Transactions" style="shape=table;startSize=30;container=1;collapsible=1;childLayout=tableLayout;fixedRows=1;rowLines=0;fontStyle=1;align=center;resizeLast=1;sketch=1;fontColor=#000000;fillColor=#fff2cc;strokeColor=#009900;strokeWidth=1;perimeterSpacing=0;" vertex="1" parent="1">
          <mxGeometry x="1290" y="-870" width="190" height="170" as="geometry">
            <mxRectangle x="2060" y="-60" width="110" height="30" as="alternateBounds" />
          </mxGeometry>
        </mxCell>
        <mxCell id="O9fD_qPUTXPjsHk1Z0R7-12" value="" style="shape=partialRectangle;collapsible=0;dropTarget=0;pointerEvents=0;points=[[0,0.5],[1,0.5]];portConstraint=eastwest;top=0;left=0;right=0;bottom=1;fontStyle=1;startSize=30;sketch=1;fillColor=#fff2cc;strokeWidth=1;perimeterSpacing=0;strokeColor=#009900;" vertex="1" parent="O9fD_qPUTXPjsHk1Z0R7-11">
          <mxGeometry y="30" width="190" height="30" as="geometry" />
        </mxCell>
        <mxCell id="O9fD_qPUTXPjsHk1Z0R7-13" value="PK" style="shape=partialRectangle;overflow=hidden;connectable=0;top=0;left=0;bottom=0;right=0;fontStyle=1;startSize=30;sketch=1;fillColor=#fff2cc;strokeWidth=1;perimeterSpacing=0;strokeColor=#009900;" vertex="1" parent="O9fD_qPUTXPjsHk1Z0R7-12">
          <mxGeometry width="30" height="30" as="geometry" />
        </mxCell>
        <mxCell id="O9fD_qPUTXPjsHk1Z0R7-14" value="Transactions " style="shape=partialRectangle;overflow=hidden;connectable=0;top=0;left=0;bottom=0;right=0;align=center;fontStyle=1;startSize=30;sketch=1;fontColor=#000000;fillColor=#fff2cc;strokeColor=#009900;strokeWidth=1;perimeterSpacing=0;" vertex="1" parent="O9fD_qPUTXPjsHk1Z0R7-12">
          <mxGeometry x="30" width="160" height="30" as="geometry" />
        </mxCell>
        <mxCell id="O9fD_qPUTXPjsHk1Z0R7-15" value="" style="shape=partialRectangle;collapsible=0;dropTarget=0;pointerEvents=0;points=[[0,0.5],[1,0.5]];portConstraint=eastwest;top=0;left=0;right=0;bottom=0;fontStyle=1;startSize=30;sketch=1;fillColor=#fff2cc;strokeWidth=1;perimeterSpacing=0;strokeColor=#009900;" vertex="1" parent="O9fD_qPUTXPjsHk1Z0R7-11">
          <mxGeometry y="60" width="190" height="30" as="geometry" />
        </mxCell>
        <mxCell id="O9fD_qPUTXPjsHk1Z0R7-16" value="FK1" style="shape=partialRectangle;overflow=hidden;connectable=0;top=0;left=0;bottom=0;right=0;fontStyle=1;startSize=30;sketch=1;fillColor=#fff2cc;strokeWidth=1;perimeterSpacing=0;strokeColor=#009900;" vertex="1" parent="O9fD_qPUTXPjsHk1Z0R7-15">
          <mxGeometry width="30" height="30" as="geometry" />
        </mxCell>
        <mxCell id="O9fD_qPUTXPjsHk1Z0R7-17" value="Passanger_trannsactions" style="shape=partialRectangle;overflow=hidden;connectable=0;top=0;left=0;bottom=0;right=0;align=center;fontStyle=1;startSize=30;sketch=1;fillColor=#fff2cc;strokeWidth=1;perimeterSpacing=0;strokeColor=#009900;" vertex="1" parent="O9fD_qPUTXPjsHk1Z0R7-15">
          <mxGeometry x="30" width="160" height="30" as="geometry" />
        </mxCell>
        <mxCell id="O9fD_qPUTXPjsHk1Z0R7-18" value="" style="shape=partialRectangle;collapsible=0;dropTarget=0;pointerEvents=0;points=[[0,0.5],[1,0.5]];portConstraint=eastwest;top=0;left=0;right=0;bottom=0;fontStyle=1;startSize=30;sketch=1;fillColor=#fff2cc;strokeWidth=1;perimeterSpacing=0;strokeColor=#009900;" vertex="1" parent="O9fD_qPUTXPjsHk1Z0R7-11">
          <mxGeometry y="90" width="190" height="80" as="geometry" />
        </mxCell>
        <mxCell id="O9fD_qPUTXPjsHk1Z0R7-19" value="" style="shape=partialRectangle;overflow=hidden;connectable=0;top=0;left=0;bottom=0;right=0;fontStyle=1;startSize=30;sketch=1;fillColor=#fff2cc;strokeWidth=1;perimeterSpacing=0;strokeColor=#009900;" vertex="1" parent="O9fD_qPUTXPjsHk1Z0R7-18">
          <mxGeometry width="30" height="80" as="geometry" />
        </mxCell>
        <mxCell id="O9fD_qPUTXPjsHk1Z0R7-20" value="date datetime&#xa;amount INT (3)&#xa;type bool" style="shape=partialRectangle;overflow=hidden;connectable=0;top=0;left=0;bottom=0;right=0;align=center;fontStyle=1;startSize=30;sketch=1;fillColor=#fff2cc;strokeWidth=1;perimeterSpacing=0;strokeColor=#009900;" vertex="1" parent="O9fD_qPUTXPjsHk1Z0R7-18">
          <mxGeometry x="30" width="160" height="80" as="geometry" />
        </mxCell>
        <mxCell id="O9fD_qPUTXPjsHk1Z0R7-21" value="&lt;font style=&quot;font-size: 31px&quot;&gt;MongoDB&lt;/font&gt;" style="text;html=1;strokeColor=none;fillColor=none;align=center;verticalAlign=middle;whiteSpace=wrap;rounded=0;shadow=0;" vertex="1" parent="1">
          <mxGeometry x="1250" y="-960" width="40" height="20" as="geometry" />
        </mxCell>
        <mxCell id="O9fD_qPUTXPjsHk1Z0R7-22" value="" style="endArrow=classic;html=1;entryX=-0.009;entryY=0.008;entryDx=0;entryDy=0;entryPerimeter=0;" edge="1" parent="1" target="O9fD_qPUTXPjsHk1Z0R7-18">
          <mxGeometry width="50" height="50" relative="1" as="geometry">
            <mxPoint x="1240" y="-770" as="sourcePoint" />
            <mxPoint x="1280" y="-790" as="targetPoint" />
          </mxGeometry>
        </mxCell>
      </root>
    </mxGraphModel>
  </diagram>
</mxfile>
